<svg xmlns="http://www.w3.org/2000/svg" viewBox="0 0 900 652" font-family="'Segoe UI', Arial, sans-serif">
  <defs>
    <linearGradient id="bgGrad" x1="0%" y1="0%" x2="100%" y2="100%">
      <stop offset="0%" style="stop-color:#0f0c29"/>
      <stop offset="50%" style="stop-color:#302b63"/>
      <stop offset="100%" style="stop-color:#24243e"/>
    </linearGradient>
    <linearGradient id="headerGrad" x1="0%" y1="0%" x2="100%" y2="0%">
      <stop offset="0%" style="stop-color:#6c63ff"/>
      <stop offset="100%" style="stop-color:#3ecfcf"/>
    </linearGradient>
    <linearGradient id="searchGrad" x1="0%" y1="0%" x2="0%" y2="100%">
      <stop offset="0%" style="stop-color:#6c63ff;stop-opacity:0.95"/>
      <stop offset="100%" style="stop-color:#4a42cc;stop-opacity:0.95"/>
    </linearGradient>
    <linearGradient id="downloadGrad" x1="0%" y1="0%" x2="0%" y2="100%">
      <stop offset="0%" style="stop-color:#3ecfcf;stop-opacity:0.95"/>
      <stop offset="100%" style="stop-color:#1fa8a8;stop-opacity:0.95"/>
    </linearGradient>
    <linearGradient id="mineGrad" x1="0%" y1="0%" x2="0%" y2="100%">
      <stop offset="0%" style="stop-color:#f7971e;stop-opacity:0.95"/>
      <stop offset="100%" style="stop-color:#c97a0a;stop-opacity:0.95"/>
    </linearGradient>
    <linearGradient id="cardBg" x1="0%" y1="0%" x2="0%" y2="100%">
      <stop offset="0%" style="stop-color:#ffffff;stop-opacity:0.07"/>
      <stop offset="100%" style="stop-color:#ffffff;stop-opacity:0.02"/>
    </linearGradient>
    <filter id="glow">
      <feGaussianBlur stdDeviation="3" result="coloredBlur"/>
      <feMerge><feMergeNode in="coloredBlur"/><feMergeNode in="SourceGraphic"/></feMerge>
    </filter>
    <filter id="shadow">
      <feDropShadow dx="0" dy="4" stdDeviation="8" flood-color="#000000" flood-opacity="0.35"/>
    </filter>
  </defs>

  <!-- Background -->
  <rect width="900" height="652" fill="url(#bgGrad)" rx="16"/>

  <!-- Subtle grid -->
  <g opacity="0.035" stroke="#ffffff" stroke-width="0.5">
    <line x1="0" y1="60" x2="900" y2="60"/><line x1="0" y1="120" x2="900" y2="120"/>
    <line x1="0" y1="180" x2="900" y2="180"/><line x1="0" y1="240" x2="900" y2="240"/>
    <line x1="0" y1="300" x2="900" y2="300"/><line x1="0" y1="360" x2="900" y2="360"/>
    <line x1="0" y1="420" x2="900" y2="420"/><line x1="0" y1="480" x2="900" y2="480"/>
    <line x1="0" y1="540" x2="900" y2="540"/><line x1="0" y1="600" x2="900" y2="600"/>
    <line x1="60" y1="0" x2="60" y2="652"/><line x1="180" y1="0" x2="180" y2="652"/>
    <line x1="300" y1="0" x2="300" y2="652"/><line x1="420" y1="0" x2="420" y2="652"/>
    <line x1="540" y1="0" x2="540" y2="652"/><line x1="660" y1="0" x2="660" y2="652"/>
    <line x1="780" y1="0" x2="780" y2="652"/>
  </g>

  <!-- ===== HEADER: y=20 h=72 bottom=92 ===== -->
  <rect x="30" y="20" width="840" height="72" rx="12" fill="url(#headerGrad)" opacity="0.13" filter="url(#shadow)"/>
  <rect x="30" y="20" width="840" height="72" rx="12" fill="none" stroke="url(#headerGrad)" stroke-width="1.5" opacity="0.55"/>

  <!-- DNA icon centered vertically at y=56 -->
  <g transform="translate(58,56)" filter="url(#glow)">
    <ellipse cx="0" cy="-16" rx="9" ry="4" fill="none" stroke="#6c63ff" stroke-width="2"/>
    <ellipse cx="0" cy="-5" rx="9" ry="4" fill="none" stroke="#3ecfcf" stroke-width="2" transform="rotate(60)"/>
    <ellipse cx="0" cy="5" rx="9" ry="4" fill="none" stroke="#6c63ff" stroke-width="2" transform="rotate(120)"/>
    <circle cx="-9" cy="-16" r="2.5" fill="#6c63ff"/>
    <circle cx="9" cy="-16" r="2.5" fill="#3ecfcf"/>
    <circle cx="-9" cy="4" r="2.5" fill="#3ecfcf"/>
    <circle cx="9" cy="4" r="2.5" fill="#6c63ff"/>
  </g>

  <!-- Title: baseline anchored carefully -->
  <text x="86" y="48" font-size="26" font-weight="700" fill="white" letter-spacing="1">dataseek</text>
  <text x="86" y="66" font-size="10" fill="#a0a8c8" letter-spacing="2.5">MULTI-AGENT OMICS DATA DISCOVERY</text>

  <!-- Omic pills: two rows inside header, right-aligned, well within y=20..92 -->
  <!-- Row 1 at y=30, h=18 — 5 pills -->
  <rect x="452" y="30" width="68" height="18" rx="9" fill="#6c63ff" opacity="0.28"/>
  <text x="486" y="43" font-size="8.5" fill="#c8c4ff" text-anchor="middle">scRNAseq</text>
  <rect x="526" y="30" width="72" height="18" rx="9" fill="#6c63ff" opacity="0.28"/>
  <text x="562" y="43" font-size="8.5" fill="#c8c4ff" text-anchor="middle">bulkRNAseq</text>
  <rect x="604" y="30" width="62" height="18" rx="9" fill="#6c63ff" opacity="0.28"/>
  <text x="635" y="43" font-size="8.5" fill="#c8c4ff" text-anchor="middle">ATACseq</text>
  <rect x="672" y="30" width="58" height="18" rx="9" fill="#6c63ff" opacity="0.28"/>
  <text x="701" y="43" font-size="8.5" fill="#c8c4ff" text-anchor="middle">ChIPseq</text>
  <rect x="736" y="30" width="50" height="18" rx="9" fill="#6c63ff" opacity="0.28"/>
  <text x="761" y="43" font-size="8.5" fill="#c8c4ff" text-anchor="middle">CRISPR</text>

  <!-- Row 2 at y=52, h=18 — 3 pills -->
  <rect x="452" y="52" width="86" height="18" rx="9" fill="#3ecfcf" opacity="0.18"/>
  <text x="495" y="65" font-size="8.5" fill="#9eeaea" text-anchor="middle">scMultiomicseq</text>
  <rect x="544" y="52" width="86" height="18" rx="9" fill="#3ecfcf" opacity="0.18"/>
  <text x="587" y="65" font-size="8.5" fill="#9eeaea" text-anchor="middle">bulkGenomicseq</text>
  <rect x="636" y="52" width="80" height="18" rx="9" fill="#3ecfcf" opacity="0.18"/>
  <text x="676" y="65" font-size="8.5" fill="#9eeaea" text-anchor="middle">scGenomicseq</text>

  <!-- ===== CARD 1: /dataseek-search  x=30 y=108 w=258 h=380 bottom=488 ===== -->
  <rect x="30" y="108" width="258" height="380" rx="12" fill="url(#cardBg)" filter="url(#shadow)"/>
  <rect x="30" y="108" width="258" height="380" rx="12" fill="none" stroke="#6c63ff" stroke-width="1.5" opacity="0.65"/>
  <!-- Header band -->
  <rect x="30" y="108" width="258" height="44" rx="12" fill="url(#searchGrad)"/>
  <rect x="30" y="138" width="258" height="14" fill="url(#searchGrad)"/>
  <!-- Header text: baseline at y=138 keeps it inside the 44px band (108+44=152) -->
  <text x="50" y="138" font-size="13" font-weight="700" fill="white" font-family="monospace">/dataseek-search</text>

  <!-- Subtitle: y=162 (10px below header bottom 152) -->
  <text x="50" y="162" font-size="9.5" fill="#a0a8c8">Dispatches source agents in parallel</text>

  <!-- Agent bubbles: each h=28, gap=4 -->
  <!-- GEO: y=174..202 -->
  <rect x="50" y="174" width="218" height="28" rx="6" fill="#6c63ff" opacity="0.18"/>
  <circle cx="65" cy="188" r="6" fill="#6c63ff"/>
  <text x="65" y="192" font-size="8" fill="white" text-anchor="middle" font-weight="700">G</text>
  <text x="79" y="186" font-size="9" fill="#c8c4ff" font-weight="600">GEO</text>
  <text x="79" y="198" font-size="7.5" fill="#8080bb">NCBI Entrez · esearch + esummary</text>

  <!-- CCLE: y=206..234 -->
  <rect x="50" y="206" width="218" height="28" rx="6" fill="#3ecfcf" opacity="0.13"/>
  <circle cx="65" cy="220" r="6" fill="#3ecfcf"/>
  <text x="65" y="224" font-size="8" fill="white" text-anchor="middle" font-weight="700">C</text>
  <text x="79" y="218" font-size="9" fill="#9eeaea" font-weight="600">CCLE</text>
  <text x="79" y="230" font-size="7.5" fill="#8080bb">DepMap Portal REST API</text>

  <!-- Xena: y=238..266 -->
  <rect x="50" y="238" width="218" height="28" rx="6" fill="#f7971e" opacity="0.13"/>
  <circle cx="65" cy="252" r="6" fill="#f7971e"/>
  <text x="65" y="256" font-size="8" fill="white" text-anchor="middle" font-weight="700">X</text>
  <text x="79" y="250" font-size="9" fill="#ffc86e" font-weight="600">Xena UCSC</text>
  <text x="79" y="262" font-size="7.5" fill="#8080bb">xenaPython + REST fallback</text>

  <!-- DepMap: y=270..298 -->
  <rect x="50" y="270" width="218" height="28" rx="6" fill="#ff6b6b" opacity="0.13"/>
  <circle cx="65" cy="284" r="6" fill="#ff6b6b"/>
  <text x="65" y="288" font-size="8" fill="white" text-anchor="middle" font-weight="700">D</text>
  <text x="79" y="282" font-size="9" fill="#ffaaaa" font-weight="600">DepMap</text>
  <text x="79" y="294" font-size="7.5" fill="#8080bb">DepMap Portal REST API</text>

  <!-- SCP: y=302..330 -->
  <rect x="50" y="302" width="218" height="28" rx="6" fill="#a78bfa" opacity="0.13"/>
  <circle cx="65" cy="316" r="6" fill="#a78bfa"/>
  <text x="65" y="320" font-size="8" fill="white" text-anchor="middle" font-weight="700">S</text>
  <text x="79" y="314" font-size="9" fill="#c4b5fd" font-weight="600">Single Cell Portal</text>
  <text x="79" y="326" font-size="7.5" fill="#8080bb">Broad Institute REST API v1</text>

  <!-- Divider at y=342 (12px below SCP bottom 330) -->
  <line x1="50" y1="342" x2="268" y2="342" stroke="#6c63ff" stroke-width="0.5" opacity="0.4"/>

  <!-- Post-merge labels: y=356 -->
  <text x="50" y="356" font-size="8.5" fill="#a0a8c8">Merge · Deduplicate · Rank · Cache</text>

  <!-- Ranking pills row 1: y=366 h=15 -->
  <rect x="50" y="366" width="62" height="15" rx="7" fill="#6c63ff" opacity="0.28"/>
  <text x="81" y="377" font-size="7.5" fill="#c8c4ff" text-anchor="middle">sample count</text>
  <rect x="118" y="366" width="54" height="15" rx="7" fill="#6c63ff" opacity="0.28"/>
  <text x="145" y="377" font-size="7.5" fill="#c8c4ff" text-anchor="middle">metadata</text>
  <rect x="178" y="366" width="50" height="15" rx="7" fill="#6c63ff" opacity="0.28"/>
  <text x="203" y="377" font-size="7.5" fill="#c8c4ff" text-anchor="middle">has DOI</text>

  <!-- Ranking pills row 2: y=386 h=15 -->
  <rect x="50" y="386" width="52" height="15" rx="7" fill="#6c63ff" opacity="0.28"/>
  <text x="76" y="397" font-size="7.5" fill="#c8c4ff" text-anchor="middle">recency</text>
  <rect x="108" y="386" width="110" height="15" rx="7" fill="#6c63ff" opacity="0.28"/>
  <text x="163" y="397" font-size="7.5" fill="#c8c4ff" text-anchor="middle">disease/tissue match</text>

  <!-- Card 1 ends at y=488, last element bottom=401 — good clearance -->


  <!-- ===== CARD 2: /dataseek-download  x=321 y=108 w=258 h=380 bottom=488 ===== -->
  <rect x="321" y="108" width="258" height="380" rx="12" fill="url(#cardBg)" filter="url(#shadow)"/>
  <rect x="321" y="108" width="258" height="380" rx="12" fill="none" stroke="#3ecfcf" stroke-width="1.5" opacity="0.65"/>
  <rect x="321" y="108" width="258" height="44" rx="12" fill="url(#downloadGrad)"/>
  <rect x="321" y="138" width="258" height="14" fill="url(#downloadGrad)"/>
  <text x="341" y="138" font-size="13" font-weight="700" fill="white" font-family="monospace">/dataseek-download</text>

  <text x="341" y="162" font-size="9.5" fill="#a0a8c8">Source detection → download → config</text>

  <!-- Step boxes: h=44 each, gap=6 -->
  <!-- Step 1: y=172..216 -->
  <rect x="341" y="172" width="218" height="44" rx="6" fill="#3ecfcf" opacity="0.1"/>
  <text x="351" y="186" font-size="9" fill="#3ecfcf" font-weight="700">1  Source detection</text>
  <text x="351" y="198" font-size="7.5" fill="#8080bb">Check search cache first</text>
  <text x="351" y="210" font-size="7.5" fill="#8080bb">Fallback: infer from accession prefix</text>

  <!-- Step 2: y=222..266 -->
  <rect x="341" y="222" width="218" height="44" rx="6" fill="#3ecfcf" opacity="0.1"/>
  <text x="351" y="236" font-size="9" fill="#3ecfcf" font-weight="700">2  Run download script</text>
  <text x="351" y="248" font-size="7.5" fill="#8080bb">download_{source}.py</text>
  <text x="351" y="260" font-size="7.5" fill="#8080bb">Retry 3× with exponential backoff</text>

  <!-- Step 3: y=272..316 -->
  <rect x="341" y="272" width="218" height="44" rx="6" fill="#3ecfcf" opacity="0.1"/>
  <text x="351" y="286" font-size="9" fill="#3ecfcf" font-weight="700">3  Summary report</text>
  <text x="351" y="298" font-size="7.5" fill="#8080bb">results/reports/{accession}_summary.md</text>
  <text x="351" y="310" font-size="7.5" fill="#8080bb">Metadata · paper · quality indicators</text>

  <!-- Step 4: y=322..366 -->
  <rect x="341" y="322" width="218" height="44" rx="6" fill="#3ecfcf" opacity="0.1"/>
  <text x="351" y="336" font-size="9" fill="#3ecfcf" font-weight="700">4  Pipeline config</text>
  <text x="351" y="348" font-size="7.5" fill="#8080bb">sample_metadata.csv + config.yaml</text>
  <text x="351" y="360" font-size="7.5" fill="#8080bb">TODO fields marked for manual review</text>

  <!-- Divider at y=378 (12px below step 4 bottom 366) -->
  <line x1="341" y1="378" x2="559" y2="378" stroke="#3ecfcf" stroke-width="0.5" opacity="0.4"/>

  <!-- Pipeline targets label: y=392 -->
  <text x="341" y="392" font-size="8.5" fill="#a0a8c8">Pipeline targets:</text>

  <!-- Pipeline rows: two columns, y=405/419/433/447 -->
  <text x="341" y="405" font-size="7.5" fill="#8080bb">scRNAseq</text>
  <text x="395" y="405" font-size="7.5" fill="#5adada">→ ../scRNAseq/</text>
  <text x="341" y="419" font-size="7.5" fill="#8080bb">bulkRNAseq</text>
  <text x="395" y="419" font-size="7.5" fill="#5adada">→ ../bulkRNAseq/</text>
  <text x="341" y="433" font-size="7.5" fill="#8080bb">ATACseq</text>
  <text x="395" y="433" font-size="7.5" fill="#5adada">→ ../ATACseq/</text>
  <text x="341" y="447" font-size="7.5" fill="#8080bb">ChIPseq</text>
  <text x="395" y="447" font-size="7.5" fill="#5adada">→ ../ChIPseq/</text>

  <!-- Card 2 ends at y=488, last text baseline=447 — good clearance -->


  <!-- ===== CARD 3: /dataseek-sample-mine  x=612 y=108 w=258 h=380 bottom=488 ===== -->
  <rect x="612" y="108" width="258" height="380" rx="12" fill="url(#cardBg)" filter="url(#shadow)"/>
  <rect x="612" y="108" width="258" height="380" rx="12" fill="none" stroke="#f7971e" stroke-width="1.5" opacity="0.65"/>
  <rect x="612" y="108" width="258" height="44" rx="12" fill="url(#mineGrad)"/>
  <rect x="612" y="138" width="258" height="14" fill="url(#mineGrad)"/>
  <text x="632" y="138" font-size="13" font-weight="700" fill="white" font-family="monospace">/dataseek-sample-mine</text>

  <text x="632" y="162" font-size="9.5" fill="#a0a8c8">Extract per-sample metadata from paper</text>

  <!-- Input types -->
  <text x="632" y="180" font-size="8.5" fill="#f7971e" font-weight="600">Accepts any of:</text>
  <!-- Pills: y=188 h=18, all within x=632..850 -->
  <rect x="632" y="188" width="68" height="18" rx="4" fill="#f7971e" opacity="0.18"/>
  <text x="666" y="200" font-size="8.5" fill="#ffc86e" text-anchor="middle">Accession ID</text>
  <rect x="706" y="188" width="36" height="18" rx="4" fill="#f7971e" opacity="0.18"/>
  <text x="724" y="200" font-size="8.5" fill="#ffc86e" text-anchor="middle">DOI</text>
  <rect x="748" y="188" width="40" height="18" rx="4" fill="#f7971e" opacity="0.18"/>
  <text x="768" y="200" font-size="8.5" fill="#ffc86e" text-anchor="middle">PMID</text>

  <!-- Full-text tiers: label y=220, bars start y=228 -->
  <text x="632" y="220" font-size="8.5" fill="#f7971e" font-weight="600">Full-text access (tiered fallback):</text>

  <!-- Tier 1: y=228 h=22 bottom=250 -->
  <rect x="632" y="228" width="218" height="22" rx="4" fill="#22c55e" opacity="0.13"/>
  <text x="642" y="243" font-size="8.5" fill="#86efac">Tier 1  PubMed Central (PMC)</text>

  <!-- Tier 2: y=254 h=22 bottom=276 -->
  <rect x="632" y="254" width="218" height="22" rx="4" fill="#f7971e" opacity="0.13"/>
  <text x="642" y="269" font-size="8.5" fill="#ffc86e">Tier 2  bioRxiv / medRxiv</text>

  <!-- Tier 3: y=280 h=22 bottom=302 -->
  <rect x="632" y="280" width="218" height="22" rx="4" fill="#ef4444" opacity="0.13"/>
  <text x="642" y="295" font-size="8.5" fill="#fca5a5">Tier 3  Abstract + supplementary tables</text>

  <!-- Scans section: label y=316, lines y=329/342/355 -->
  <text x="632" y="316" font-size="8.5" fill="#f7971e" font-weight="600">Scans:</text>
  <text x="632" y="329" font-size="7.5" fill="#8080bb">Methods · Results · Patient Cohort sections</text>
  <text x="632" y="342" font-size="7.5" fill="#8080bb">Main article tables · Figure captions</text>
  <text x="632" y="355" font-size="7.5" fill="#8080bb">Supplementary tables via supplement_fetch.py</text>

  <!-- Divider at y=366 (11px below last scan line baseline 355) -->
  <line x1="632" y1="366" x2="850" y2="366" stroke="#f7971e" stroke-width="0.5" opacity="0.4"/>

  <!-- Outputs section: label y=380, lines y=393/406 -->
  <text x="632" y="380" font-size="8.5" fill="#f7971e" font-weight="600">Outputs:</text>
  <text x="632" y="393" font-size="7.5" fill="#8080bb">{id}_samples.csv — flexible schema</text>
  <text x="632" y="406" font-size="7.5" fill="#8080bb">{id}_extraction_report.md</text>

  <!-- Constraint notes: y=420/433/446 -->
  <text x="632" y="420" font-size="7" fill="#606080">Outer-join merge on sample_id · Read-only</text>
  <text x="632" y="433" font-size="7" fill="#606080">No OCR · No web scraping · No fixed schema</text>

  <!-- Card 3 ends at y=488, last text baseline=433 — good clearance -->


  <!-- ===== BOTTOM LEFT: Output Structure  x=30 y=504 w=390 h=130 bottom=634 ===== -->
  <rect x="30" y="504" width="390" height="130" rx="12" fill="url(#cardBg)" filter="url(#shadow)"/>
  <rect x="30" y="504" width="390" height="130" rx="12" fill="none" stroke="#ffffff" stroke-width="1" opacity="0.1"/>
  <text x="50" y="522" font-size="11" font-weight="700" fill="white">Output Structure</text>

  <!-- Path rows: each 14px apart, starting y=537 -->
  <text x="50"  y="537" font-size="8.5" fill="#6c63ff"  font-family="monospace">results/search_cache/</text>
  <text x="220" y="537" font-size="7.5" fill="#7070a0">Cached JSON results (versioned)</text>

  <text x="50"  y="551" font-size="8.5" fill="#3ecfcf" font-family="monospace">downloads/{accession}/data/</text>
  <text x="220" y="551" font-size="7.5" fill="#7070a0">Raw data files</text>

  <text x="50"  y="565" font-size="8.5" fill="#3ecfcf" font-family="monospace">downloads/{accession}/metadata/</text>
  <text x="220" y="565" font-size="7.5" fill="#7070a0">study_metadata.json · paper.json · sample CSV</text>

  <text x="50"  y="579" font-size="8.5" fill="#3ecfcf" font-family="monospace">downloads/{accession}/pipeline_config/</text>
  <text x="220" y="579" font-size="7.5" fill="#7070a0">Pipeline-ready starter configs</text>

  <text x="50"  y="593" font-size="8.5" fill="#f7971e" font-family="monospace">results/sample_mining/</text>
  <text x="220" y="593" font-size="7.5" fill="#7070a0">Mined sample CSVs + extraction reports</text>

  <text x="50"  y="607" font-size="8.5" fill="#a78bfa" font-family="monospace">results/reports/</text>
  <text x="220" y="607" font-size="7.5" fill="#7070a0">Per-dataset summary markdown reports</text>

  <!-- Bottom left ends y=634, last text baseline=607 -->


  <!-- ===== BOTTOM RIGHT: Setup  x=440 y=504 w=430 h=130 bottom=634 ===== -->
  <rect x="440" y="504" width="430" height="130" rx="12" fill="url(#cardBg)" filter="url(#shadow)"/>
  <rect x="440" y="504" width="430" height="130" rx="12" fill="none" stroke="#ffffff" stroke-width="1" opacity="0.1"/>
  <text x="460" y="522" font-size="11" font-weight="700" fill="white">Setup &amp; Configuration</text>

  <!-- Code block: y=528 h=32 bottom=560 -->
  <rect x="460" y="528" width="390" height="32" rx="6" fill="#000000" opacity="0.28"/>
  <text x="472" y="541" font-size="8.5" fill="#3ecfcf" font-family="monospace">conda env create -f environment.yml</text>
  <text x="472" y="554" font-size="8.5" fill="#86efac" font-family="monospace">conda run -n dataseek pytest tests/ -v</text>

  <!-- Env vars label: y=570 -->
  <text x="460" y="570" font-size="8.5" fill="#a0a8c8" font-weight="600">Optional environment variables:</text>

  <!-- Env var boxes: y=576 h=24 bottom=600 -->
  <rect x="460" y="576" width="185" height="24" rx="4" fill="#6c63ff" opacity="0.13"/>
  <text x="470" y="589" font-size="8" fill="#c8c4ff" font-family="monospace">NCBI_API_KEY</text>
  <text x="470" y="600" font-size="7.5" fill="#7070a0">Higher GEO rate limits</text>

  <rect x="655" y="576" width="185" height="24" rx="4" fill="#a78bfa" opacity="0.13"/>
  <text x="665" y="589" font-size="8" fill="#c4b5fd" font-family="monospace">SCP_TOKEN</text>
  <text x="665" y="600" font-size="7.5" fill="#7070a0">Single Cell Portal access</text>

  <!-- Key packages: y=618 -->
  <text x="460" y="618" font-size="7.5" fill="#7070a0">Key packages: biopython · requests · pandas · xenaPython · pytest · responses</text>

  <!-- Bottom right ends y=634, last text baseline=618 -->


  <!-- Footer: y=643 -->
  <text x="450" y="643" font-size="8" fill="#404068" text-anchor="middle">github.com/jwa7 · conda env: dataseek · claude-sonnet-4-6</text>

  <!-- Decorative glows -->
  <circle cx="875" cy="620" r="70" fill="#6c63ff" opacity="0.035"/>
  <circle cx="25" cy="25" r="45" fill="#3ecfcf" opacity="0.04"/>
</svg>
